<svg width="20" height="87" viewBox="0 0 20 87" fill="none" xmlns="http://www.w3.org/2000/svg">
<path d="M7.74021 37.4016C7.74021 37.3459 7.73157 36.4923 7.55053 34.4105C7.29366 31.4567 6.44671 28.9244 6.06738 27.4876C5.83961 26.6249 5.9891 26.1276 6.30406 25.6162C6.88219 24.6774 7.85255 23.9655 8.47711 23.4839C9.64026 22.5869 12.0024 23.2253 12.7408 23.6173C13.3214 23.9256 13.6739 24.464 13.9138 24.8157C14.1377 25.1438 14.1426 26.9709 13.9679 30.7382C13.7964 32.8977 13.4569 35.56 13.2415 37.1029C13.0262 38.6458 12.9454 38.9886 12.8295 39.4058" stroke="black" stroke-linecap="round"/>
<path d="M7.79932 37.2373C7.80777 38.6198 7.97818 41.9865 8.26696 42.855C8.31862 43.0104 8.52789 43.0586 8.68984 43.0925C8.85179 43.1263 9.01503 43.1136 9.13994 43.0333C10.0061 42.4759 9.59483 40.3788 9.83043 39.5746C9.88284 39.3957 9.99923 39.2705 10.1222 39.1698C10.2451 39.0692 10.3974 39.0068 10.5539 39.0079C10.7105 39.0091 10.8666 39.0757 10.9753 39.2158C11.5947 40.0142 11.5767 42.0828 11.9868 43.0454C12.0502 43.1942 12.2344 43.2432 12.3638 43.2271C12.4932 43.211 12.6123 43.095 12.6871 42.9286C12.8341 41.559 12.8419 39.7938 12.7881 39.4138C12.7612 39.2348 12.7351 39.0836 12.7064 38.8447" stroke="black" stroke-linecap="round"/>
<path d="M8.37207 42.6804C8.37207 42.6858 8.37207 42.6912 8.40011 44.3375C8.42815 45.9838 8.48423 49.2709 8.8854 56.3144C9.28657 63.3579 10.0311 74.0582 10.4425 79.6701C10.8686 85.4845 11.0269 85.854 11.1995 86.1567C11.2865 86.3094 11.4732 86.3907 11.6409 86.4371C12.3976 86.6466 13.6826 86.0363 15.0705 85.3647C15.5852 85.1156 16.1789 84.8138 16.7471 83.9911C17.6881 82.6289 17.0665 80.8031 17.1595 79.3954C17.2197 78.4837 17.1783 77.1653 16.9291 75.0452C16.6798 72.925 16.1913 70.0414 15.8795 68.2166C15.5677 66.3917 15.4475 65.713 15.2276 63.6131C15.0077 61.5131 14.6918 58.0125 14.1808 54.7621C13.6699 51.5116 12.9735 48.6175 12.6012 47.0352C12.2288 45.453 12.2015 45.2703 12.1875 44.8067C12.1734 44.343 12.1734 43.6038 12.1734 42.8422" stroke="black" stroke-linecap="round"/>
<path d="M5.16142 37.1577C4.98764 37.0434 3.78278 35.2383 2.23538 32.151C0.840965 29.3688 0.678264 27.3294 0.576543 25.7307C0.38684 22.7493 0.57588 20.5724 0.857921 19.6665C1.05734 19.0259 1.51983 18.0693 2.47567 16.1762C3.4315 14.2831 4.90469 11.4956 6.15026 9.32918C7.39582 7.16281 8.36912 5.7021 9.0181 4.43454C10.1502 2.22338 10.2956 0.817753 10.3483 0.5035C10.3655 0.40082 11.2271 2.41028 12.9455 6.5126C13.9532 8.91797 14.7921 12.1546 15.6791 14.6636C16.566 17.1727 17.3621 18.9008 17.8584 20.2887C18.3547 21.6766 18.5271 22.6719 18.6329 24.6403C18.7386 26.6087 18.7724 29.52 18.7746 31.1231C18.6047 33.4771 18.2222 34.4454 16.9661 36.0952C16.6677 36.4575 16.5219 36.5977 16.2175 36.8504" stroke="black" stroke-linecap="round"/>
<path d="M5.57715 22.6896C5.57715 22.3729 5.73002 21.3234 6.28804 20.3907C6.76532 19.593 7.63139 19.6398 8.16689 19.5481C8.94966 19.4142 8.97042 17.9595 9.3344 17.0602C9.51167 16.6222 9.79153 16.2268 10.0215 15.9766C10.904 15.0164 12.0767 18.9104 12.8658 19.5764C13.3097 19.9511 13.7939 20.095 14.033 20.38C14.2433 20.7783 14.446 21.392 14.6018 22.0609C14.655 22.3496 14.6553 22.5351 14.6557 22.7262" stroke="black" stroke-linecap="round"/>
</svg>
