<svg width="46" height="31" viewBox="0 0 46 31" fill="none" xmlns="http://www.w3.org/2000/svg">
<path d="M40.7739 14.0267C39.1757 11.3658 35.5069 5.90976 34.5841 5.57136C33.9521 5.33963 32.3036 6.16769 29.6344 7.40298C24.7125 9.68078 20.5915 8.52743 18.8978 7.72506C15.2734 6.00806 14.4055 5.04088 13.6632 4.86962C13.1027 4.74031 10.8111 7.48432 7.67308 11.5615C6.3836 13.2369 6.23767 13.7479 6.15147 14.3264C6.0291 15.1476 6.21035 16.0087 6.41765 16.6679C7.03352 18.6264 11.1222 20.7497 14.6465 22.5272C18.9536 24.6993 22.0051 25.4346 23.2774 25.5295C25.5051 25.6955 28.8138 25.1076 32.2542 24.2077C36.4871 23.1004 37.9464 21.4505 38.8943 20.411C39.633 19.6009 39.5354 17.891 39.1275 16.7793C38.655 15.4917 36.7211 14.663 33.9912 13.6544C32.903 13.2524 31.2261 12.9861 28.0044 12.7088C24.7827 12.4315 20.0331 12.258 17.4054 12.1916C13.7014 12.0981 11.9844 12.9227 10.4209 13.6705C9.85099 13.9431 9.86514 14.2377 10.1721 14.5751C11.9723 16.5538 15.4534 17.0775 19.7043 17.806C25.164 18.7416 28.7691 18.3541 29.52 18.2725C29.8866 18.2223 30.2237 18.154 31.0901 18.0743C31.9565 17.9946 33.342 17.9056 34.7694 17.8138" stroke="#E92323" stroke-width="8" stroke-linecap="round"/>
<path d="M0.5 13.5229C3.38604 9.64513 9.69485 1.61644 10.6724 0.920556C13.4891 -1.08461 18.4768 4.70648 20.4796 5.09459C25.6089 6.08856 31.631 1.67458 32.4081 1.69785C33.3583 1.95228 34.5755 2.63099 37.1375 5.07695C39.0136 7.03514 42.0594 10.449 45.3336 14.0152" stroke="black" stroke-linecap="round"/>
<path d="M2.98828 14.5486C3.52401 14.616 7.88536 15.8319 11.0582 16.551C14.3361 17.2939 16.207 15.7153 17.3096 15.1762C19.9382 13.8908 24.8594 16.9515 27.7037 16.9502C28.7727 16.9497 29.6777 16.4121 30.6203 16.1296C32.5709 15.545 37.5863 17.4453 40.9732 17.2369C41.5247 17.0953 42.186 16.8633 42.7378 16.6314C43.2897 16.3995 43.7121 16.1747 44.8401 15.402" stroke="black" stroke-linecap="round"/>
<path d="M44.8401 15.4021C44.693 16.0115 42.5721 20.0344 38.9699 24.2608C37.1016 26.4528 34.0935 27.7654 31.2951 28.9327C26.1245 31.0896 21.0719 29.9738 16.0969 27.9917C11.6688 25.203 7.5107 21.8826 4.77824 19.0146C3.61168 17.7015 2.89192 16.6772 2.07324 15.5563" stroke="black" stroke-linecap="round"/>
</svg>
