<svg width="288" height="216" viewBox="0 0 288 216" fill="none" xmlns="http://www.w3.org/2000/svg">
<path d="M102.62 71.2139C102.584 68.3772 102.026 60.6488 100.3 55.3503C98.501 49.8238 93.2377 45.071 90.7514 41.9612C89.987 41.0051 91.1325 40.7398 92.4245 41.1809C95.5151 42.2361 97.6308 44.1475 98.8385 45.4271C104.535 51.4633 104.555 65.952 105.707 69.5306C105.952 70.2929 105.177 71.2792 104.923 71.269C98.3778 71.0074 100.571 55.3417 99.9774 54.5833C98.4976 52.693 100.991 61.6208 101.338 67.4025C101.417 68.7268 100.666 69.8994 100.917 70.4807C103.045 75.4185 113.401 62.4058 117.767 58.3987C126.867 50.0463 131.132 50.2822 134.72 50.3489C135.602 50.3654 136.307 50.7837 136.96 51.2488C137.613 51.7138 138.179 52.3453 138.131 52.8492C137.308 61.4311 115.239 60.7045 112.071 62.6791C109.519 64.8043 106.464 67.9081 104.028 71.0045C103.125 72.3169 102.901 73.1037 102.38 74.5129" stroke="black" stroke-linecap="round"/>
<path d="M102.957 73.2998C101.591 73.2774 97.9681 73.0093 93.3801 71.6768C92.3035 71.3641 91.6103 71.1103 90.8319 71.2354C85.1486 72.1488 80.515 82.2646 78.2556 88.8958C77.34 91.583 76.7839 95.9134 76.7803 98.0754C76.7767 100.237 77.629 100.181 78.7323 99.5684C84.9044 96.1397 87.8784 90.0429 94.1883 83.5784C99.2893 78.3523 103.178 78.2404 103.912 77.9978C104.798 77.7053 96.4815 78.5909 88.3357 78.5908C85.8329 78.5908 86.6469 78.2638 87.8855 77.7416C94.8662 74.7986 101.174 73.1074 105.228 72.0278C106.625 71.6555 108.176 70.5439 108.674 69.9675C109.173 69.3912 108.502 69.1841 107.512 69.7322C104.939 71.1565 102.884 73.6801 102.444 74.2478C98.5767 79.2383 109.931 66.0313 112.075 61.2493C113.572 57.911 123.55 56.7919 130.292 55.2928C130.738 55.1936 121.397 59.3271 107.978 65.1806C95.7079 70.533 93.8567 73.0169 84.9469 79.4106C82.3155 81.299 81.2671 83.7557 80.548 85.9577C81.2902 86.361 86.5223 81.655 94.508 74.1576C98.0259 71.0986 100.459 69.5536 104.39 67.2612" stroke="black" stroke-linecap="round"/>
<path d="M93.2538 62.0775C93.2538 62.0283 93.2538 61.9792 92.1737 54.8838C91.0937 47.7885 88.9335 33.6485 87.8208 25.8329C86.708 18.0173 86.708 16.9545 87.0146 15.8756C88.2697 11.4601 96.8035 6.73067 103.914 2.96562C106.794 1.44074 110.528 1.15909 117.508 0.671461C122.624 0.314052 130.975 0.529761 139.373 1.1848C156.038 2.48456 165.746 4.85431 167.981 5.84068C173.137 8.11687 174.424 21.1364 175.42 28.913C175.71 31.1722 176.928 32.5997 178.402 33.5356C179.661 34.335 182.19 33.7174 199.396 29.481C214.977 25.6447 244.398 18.1172 260.026 14.2541C275.653 10.3911 276.579 10.3522 277.609 11.3403C280.27 13.8921 281.588 18.6455 283.393 27.7492C284.749 34.584 285.983 46.0974 286.752 52.5988C287.659 60.2728 287.264 62.3479 285.625 66.1093C282.115 74.1643 277.243 82.2872 272.707 90.3432C266.443 101.471 262.472 110.944 258.611 115.454C249.853 125.685 238.758 129.665 231.552 131.925C226.121 133.629 218.219 133.426 216.189 135.785C207.352 146.056 237.977 147.856 238.935 149.113C240.076 150.609 240.047 154.037 239.977 157.689C239.937 159.796 238.699 161.468 236.944 163.361C233.617 166.948 227.451 166.913 221.67 168.474C219.376 169.093 217.575 169.931 215.791 170.013C214.916 170.052 212.666 170.95 211.939 170.336" stroke="black" stroke-linecap="round"/>
<path d="M91.4054 61.4683C91.2777 61.4683 81.7071 61.5537 63.8926 62.4168C48.6091 63.1572 40.6039 66.5766 37.9584 67.6873C31.4603 70.4156 29.3964 73.0743 24.9826 81.3614C21.0405 88.7627 14.6129 103.149 10.2248 113.859C5.83674 124.569 3.9311 131.294 2.64791 141.342C1.36472 151.39 0.761718 164.558 0.530444 171.909C0.195226 182.564 2.69791 186.145 4.61031 188.869C6.47205 191.521 10.6137 192.162 18.007 192.992C23.7384 193.636 28.2185 192.777 34.484 190.206C39.683 188.073 48.5937 183.366 54.5739 180.071C63.4496 175.182 70.7233 167.807 78.0949 159.966C81.2623 156.597 82.0991 154.916 83.202 153.19C84.1673 151.679 87.9307 151.285 92.3073 151.667C96.1652 152.004 100.584 165.338 104.543 173.509C109.233 183.188 112.245 190.741 112.27 192.874C112.334 198.586 100.878 205.424 96.8331 209.522C96.3565 210.005 96.7204 210.902 97.251 211.548C100.791 215.859 113.463 215.104 121.659 213.805C135.921 211.544 139.87 205.187 145.508 200.948C150.538 197.165 160.129 190.282 166.682 185.749C176.342 179.068 180.217 176.744 180.784 174.141C181.952 168.783 181.978 164.249 183.606 162.782C186.229 160.418 190.516 159.999 193.506 160.342C197.818 160.836 201.221 168.606 204.495 171.144C205.152 171.652 214.211 169.955 214.939 169.703" stroke="black" stroke-linecap="round"/>
<path d="M218.078 184.366C218.334 185.357 219.682 188.306 221.611 190.18C222.633 191.173 224.128 191.128 225.16 190.856C226.346 190.543 226.69 188.788 226.992 187.466C227.26 186.293 227.111 185.11 226.558 184.05C223.853 182.806 220.27 182.573 217.778 183.406C217.272 183.676 216.754 183.933 216.22 184.198" stroke="black" stroke-linecap="round"/>
<path d="M242.291 180.106C243.907 180.289 252.119 182.673 259.45 185.969C261.522 186.9 266.729 187.003 273.242 186.641C275.495 186.515 275.508 185.568 275.168 184.97C272.345 183.038 269.697 182.137 264.987 181.843C260.856 181.648 253.191 181.359 245.293 181.062" stroke="black" stroke-linecap="round"/>
<path d="M51.2825 81.0654C50.4881 81.1729 44.6296 83.1421 40.8887 85.0361C39.7069 85.6344 39.5801 87.35 39.3859 88.7689C38.7359 93.5181 41.5307 100.503 42.6314 104.557C43.5575 107.968 46.6105 109.608 49.306 111.351C51.9669 113.071 55.0779 112.769 57.4698 112.309C58.6673 112.078 59.8669 110.572 61.116 109.686C66.4278 105.919 61.2374 128.247 58.4679 133.299C52.9469 143.37 50.7959 145.32 50.9883 147.305C51.5577 153.181 66.5624 139.846 71.2321 135.517C76.3156 130.804 79.2218 126.57 80.4122 125.795C81.9099 124.82 85.2979 124.722 89.2062 124.823C91.748 125.291 94.2742 126.807 97.8949 129.831C99.9291 131.675 102.363 134.15 105.358 137.334" stroke="black" stroke-linecap="round"/>
<path d="M149.296 79.6687C149.425 79.7975 157.823 85.8128 171.164 95.5686C177.897 100.491 179.716 103.389 181.7 108.008C188.767 124.463 189.532 128.389 192.778 131.461C195.944 134.457 203.888 133.108 209.405 132.823C210.2 132.782 210.784 132.814 211.106 133.221C211.428 133.629 211.469 134.411 211.27 135.136C210.869 136.594 209.237 137.555 207.529 138.209C206.221 138.711 197.563 138.87 182.092 138.311C167.936 137.799 160.64 134.498 158.824 133.677C153.334 131.192 150.29 130.058 147.079 130.264C143.883 130.469 140.782 137.509 137.302 140.764C133.148 144.649 127.008 138.911 123.781 139.024C119.86 139.161 116.648 141.826 112.583 142.159C109.87 141.263 108.155 138.786 106.368 136.89C105.854 136.584 105.28 136.422 104.334 136.322" stroke="black" stroke-linecap="round"/>
<path d="M205.576 70.213C206.122 69.5116 207.9 67.4585 213.445 63.8683C218.284 60.7354 227.387 55.1803 233.436 51.1417C245.947 42.7881 247.415 41.2838 249.718 40.6325C254.513 39.2761 261.108 40.564 261.641 41.4782C261.948 42.0041 261.882 42.8594 261.708 43.6058C261.364 45.0859 258.668 47.3158 254.151 50.5369C244.69 57.2841 239.243 61.2312 237.611 63.3381C236.021 65.3918 235.489 68.6101 235.487 71.6234C235.486 72.2958 235.943 72.6098 236.559 72.894C240.675 74.793 245.557 74.1862 246.507 74.6696C247.45 75.1491 247.589 76.9764 247.585 78.8613C247.583 80.085 247.167 81.2898 246.387 82.6776C245.011 85.1251 240.738 85.561 225.421 86.7018C219.135 87.1701 215.244 91.113 210.136 94.5688C206.949 96.0062 203.497 97.1194 200.135 97.7113C198.404 97.9403 196.623 98.0243 194.787 98.1109" stroke="black" stroke-linecap="round"/>
</svg>
