<svg width="124" height="83" viewBox="0 0 124 83" fill="none" xmlns="http://www.w3.org/2000/svg">
<path d="M58.4135 79.4195C58.4425 79.4195 61.9196 79.4081 67.4767 79.3497C70.1972 79.3211 74.4998 78.1698 82.2946 76.1707C90.8872 73.967 96.7761 72.3721 99.1601 71.1463C101.392 69.9985 103.432 68.2539 106.505 65.1628C111.721 59.9142 114.493 55.6009 114.937 54.7102C115.404 53.7726 115.574 51.1242 115.527 47.5773C115.499 45.4096 111.861 39.7838 106.251 31.5154C102.662 26.2264 97.9187 22.4836 93.2073 18.6452C88.8156 15.0672 85.5132 14.7048 80.6671 14.3305C77.4059 14.0787 72.4831 14.3134 59.7144 16.0993C46.9457 17.8853 26.4718 21.3718 15.6019 23.2784C4.73197 25.185 4.08653 25.406 3.59151 25.7007C3.09648 25.9955 2.77143 26.3573 2.61252 26.8056C2.2843 27.7315 2.6679 28.9327 3.8453 31.8613C6.42008 38.2655 9.21107 43.4335 11.3923 46.4919C12.7962 48.4603 15.1471 51.0171 19.1299 54.8277C23.1127 58.6383 28.7441 63.5596 32.7021 66.7084C38.5591 71.3681 42.1034 72.7728 46.6255 73.8524C49.9652 74.6498 55.5502 75.3829 62.0512 75.8426C68.5523 76.3023 75.8317 76.3204 80.4981 76.2104C90.2326 75.981 94.7439 73.7178 97.6643 71.9719C100.589 70.2236 100.322 64.0102 99.483 56.5809C98.9438 51.8066 95.2266 47.3918 91.5688 42.9717C89.6521 40.6557 87.1392 38.6045 84.67 36.6122C82.2007 34.62 79.7303 32.8545 75.0482 30.6137C70.3661 28.373 63.5474 25.7105 58.4723 24.0221C53.3972 22.3337 50.2725 21.7002 46.2035 21.2724C37.243 20.3303 30.1987 20.6148 26.4661 21.1373C20.0321 22.0378 15.69 26.3329 11.9087 30.4198C8.75224 33.8313 8.40659 38.0017 8.43877 41.925C8.48431 47.4757 17.0233 50.8585 22.4379 53.2962C25.212 54.5452 28.2702 55.2712 34.2458 55.909C40.2213 56.5468 49.0805 56.9345 54.3722 57.0209C61.1206 57.131 63.5994 56.1728 65.4792 55.1569C67.2728 54.1874 68.519 52.7367 69.4735 51.2936C70.4567 49.807 70.5943 47.8267 70.5406 45.9142C70.4854 43.9501 68.2754 42.0335 65.0466 39.961C61.013 37.3718 54.8278 36.1395 45.9338 34.9056C40.4631 34.1467 32.9445 33.9974 27.7888 33.8769C20.0437 33.6959 15.621 34.42 12.5277 35.2431C10.2007 35.8623 8.81972 37.13 7.82526 38.0452C7.02535 38.7814 6.84243 39.7363 6.78382 40.9278C6.68932 42.8489 7.21728 44.7739 8.13726 46.3259C9.2819 48.2569 12.4774 49.7029 16.7809 51.3435C19.1721 52.255 22.19 52.7335 27.9727 53.1364C33.7555 53.5392 42.2642 53.7002 48.517 53.5497C54.7698 53.3992 58.5089 52.9323 62.69 52.0006C77.4723 48.7064 80.1656 46.3839 81.0289 45.7302C81.4237 45.4313 81.5558 44.9979 80.9552 44.5857C79.1794 43.3672 71.6958 43.1627 61.1202 43.151C56.3958 43.1458 52.9824 43.6792 48.5027 44.8506C44.0229 46.022 38.582 47.9526 35.0935 49.3424C27.6628 52.3027 25.9577 54.7672 25.4722 55.6936C25.2297 56.1564 25.2528 56.7183 25.4118 57.1715C26.3533 59.8541 32.7569 61.4116 38.7542 63.2976C42.0558 64.3359 46.0237 65.0568 53.6314 65.6819C61.239 66.3069 72.4025 66.691 79.0084 66.7472C87.3273 66.8181 90.102 65.8871 91.8254 65.2409C92.547 64.9703 92.9029 64.679 93.0143 64.2466C93.1258 63.8141 92.9679 63.2142 92.3035 62.6554C90.6853 61.2945 86.8906 60.5479 79.0624 59.6004C73.6391 58.9439 65.1737 58.9127 58.7757 58.9553C52.3776 58.998 48.2788 59.3665 44.1497 60.1591C35.8952 61.7436 31.0273 63.8128 30.5752 64.5147C30.3302 64.895 32.4461 64.9536 38.5361 63.3082C44.6262 61.6627 55.2379 58.2165 63.5433 54.8642C71.8486 51.5118 77.5261 48.3575 80.9793 46.2355C85.65 43.3653 87.0722 41.219 87.8411 39.5916C88.183 38.8679 88.1576 38.239 87.9499 37.747C86.9124 35.2894 80.2501 35.8309 72.5458 37.2745C63.534 38.963 58.6629 45.1633 56.2861 48.2514C55.8264 48.8487 55.8478 49.5359 55.9066 50.102C55.9653 50.668 56.204 51.1794 56.787 51.6261C60.2029 54.2429 68.2458 53.4337 76.1317 52.4728C79.5134 52.0608 82.007 49.816 84.0821 47.8311C86.0371 45.961 86.7207 43.4939 86.9958 41.2757C87.2726 39.0441 86.1935 36.8921 84.4421 35.0763C82.4701 33.0318 78.8312 32.646 75.0857 32.3703C71.1184 32.0782 66.9454 33.3257 62.9133 34.9755C55.46 38.0252 52.751 43.6429 51.3716 47.5602C50.736 49.3655 51.525 51.1873 52.6402 52.5606C55.5312 56.1205 63.4955 54.494 70.5512 52.9643C74.0952 52.196 76.7291 49.2001 79.1212 46.4913C83.9259 41.0505 83.7716 33.1189 83.0072 28.1766C82.8572 27.2068 81.9334 26.7454 81.1431 26.3781C77.4167 25.764 74.3672 26.2915 72.0004 27.5458C70.5456 28.4481 68.5757 29.8901 66.546 31.3758" stroke="#E92323" stroke-width="5" stroke-linecap="round"/>
<path d="M30.1058 54.0793C30.1669 54.0793 30.228 54.0793 34.3904 54.0255C38.5527 53.9716 46.8146 53.864 52.5673 53.5839C61.3332 53.1571 67.2145 51.6701 72.321 50.2635C79.1746 48.3757 82.1971 45.7112 83.4556 43.9832C83.9456 43.3102 83.6386 42.2577 83.2507 41.1803C82.1085 38.0083 75.5979 35.574 67.1002 32.8101C62.3486 31.2647 55.5892 31.7341 49.0087 32.0866C45.2476 32.288 43.4654 33.8458 42.2276 35.0171C40.3781 36.7674 40.8153 39.6372 41.3427 42.0925C41.6344 43.4506 43.4629 44.2917 45.5057 45.107C47.9736 46.092 53.7183 46.0659 61.0583 45.9493C66.3125 45.8659 70.171 44.1897 73.5023 42.7241C78.6993 40.4378 81.0656 37.0184 82.1807 33.7049C82.4551 32.8897 82.1914 32.0107 81.757 31.1985C80.817 29.441 78.042 28.1828 74.3264 26.9981C70.056 25.6365 64.9335 25.6304 59.9012 25.644C55.1727 25.6567 51.1899 27.2197 48.1684 28.9618C43.6359 31.575 42.8253 36.2513 42.4024 40.3477C42.2059 42.2511 42.9971 44.01 44.2877 45.517C45.8373 47.3263 49.3542 47.7092 53.2476 48.2158C57.4655 48.7645 61.9409 48.2068 66.218 47.288C70.3763 46.3948 73.7208 44.0988 76.455 42.0166C81.3257 38.3075 81.9359 31.0553 81.6617 25.0861C81.5388 22.4099 78.0428 20.5618 73.8866 18.7758C71.5465 17.7702 68.4856 17.2083 63.7722 16.6518C59.0589 16.0953 52.7215 15.7263 47.9518 15.6715C40.1699 15.5822 34.8224 16.9065 30.7568 18.4607C27.4365 19.7299 25.5721 21.8371 24.2694 23.5644C21.5115 27.2211 22.1318 36.2278 23.1613 42.8237C23.5087 45.049 25.3513 46.3152 26.7836 47.117C29.7666 48.787 34.0544 47.1524 39.0628 44.5523C45.4991 41.2109 49.3976 34.8459 51.8052 29.6188C52.8254 27.404 52.5185 25.106 52.2626 23.1396C51.7176 18.953 46.8776 16.4367 38.8852 12.7874C32.8366 10.0257 27.5467 11.189 25.8657 11.9641C22.0016 13.7459 13.4696 16.3542 10.5355 18.3966C7.36911 20.6005 6.23776 26.2156 4.43979 36.752C2.90922 45.7213 4.88637 48.2009 6.42259 51.1753C7.08745 52.4626 8.01852 53.3713 10.267 55.3068C15.0745 59.4451 20.0603 62.5629 23.0188 64.1136C24.4509 64.8642 25.8552 65.3155 30.458 66.193C35.0609 67.0705 42.8486 68.3029 50.1583 69.0024C57.468 69.702 64.0637 69.8314 71.5347 69.0766C79.0057 68.3219 87.1521 66.679 92.3805 65.4466C99.7415 63.7115 102.884 62.0619 105.078 60.7673C109.865 57.9428 113.386 53.228 115.768 48.2972C117.008 45.7319 116.579 42.4124 116.113 39.0317C115.612 35.396 113.058 31.9469 109.91 28.4298C106.303 24.4009 101.082 21.4979 94.6423 18.1835C90.7678 16.1893 85.3397 14.2191 81.3029 12.8208C77.2662 11.4226 74.7031 10.8242 70.4016 10.3698C66.1001 9.9153 60.138 9.62286 56.3978 9.61843C51.312 9.61241 48.7963 10.7957 46.584 12.0487C44.4522 13.2561 39.4434 18.2738 32.4478 25.4183C25.345 32.6721 24.6253 36.5834 24.3057 42.1732C24.1439 45.0022 25.8468 47.9659 28.1739 51.4116C30.8888 55.4313 35.3828 58.3599 40.2294 60.869C42.8208 62.2106 46.0682 62.8642 49.4545 63.5581C52.8407 64.252 56.3665 64.7551 60.0602 64.9876C63.7538 65.2201 67.5085 65.1668 71.2183 64.8762C78.5028 64.3054 84.5242 62.6022 89.1134 60.6908C93.3861 58.9113 96.4412 56.4086 98.4995 54.0154C100.41 51.7947 100.737 48.7703 100.912 46.0306C101.085 43.3173 99.3923 40.5663 96.902 37.785C94.023 34.5696 88.7838 32.1256 82.7312 29.3041C79.6298 27.8582 76.3116 26.7304 70.3409 25.3174C64.3702 23.9043 55.8077 22.3288 49.4901 21.4848C39.4083 20.1379 34.5151 20.6859 29.7674 22.3123C25.8912 23.6401 19.2142 26.48 14.6311 28.2016C7.86954 30.7414 5.19691 31.5197 4.74077 32.1711C4.28411 32.8233 5.07331 36.4263 6.01174 41.638C6.62617 45.0504 9.03226 49.4079 12.4761 55.0292C15.1297 59.3606 18.0704 62.0126 20.5911 64.1629C25.1498 68.0515 34.2436 70.7966 37.9571 72.6382C43.331 75.3032 21.251 69.1313 19.5478 68.6615C16.7983 67.9031 28.9459 73.8476 37.6383 77.2176C43.8171 79.6131 48.2038 79.8436 51.0224 79.8333C53.0411 79.8258 55.3902 78.092 59.651 75.8786C62.2242 74.5418 66.0334 73.6274 71.4964 72.4983C76.9594 71.3691 84.0634 70.2718 88.3126 69.5047C92.5617 68.7376 93.7408 68.3338 94.5138 67.9861C95.2869 67.6384 95.6181 67.3589 96.546 66.7055" stroke="#E92323" stroke-width="5" stroke-linecap="round"/>
<path d="M88.5173 71.5663C92.8541 71.4949 103.294 70.9937 107.078 69.2289C115.243 65.4208 116.318 61.735 117.746 59.5716C119.626 56.7242 119.4 49.4629 119.085 46.5759C118.707 43.1174 114.227 39.2831 110.066 36.2794C106.749 33.8859 100.672 30.1805 97.1466 28.0135C91.0138 24.2439 87.0336 23.7541 80.693 23.3544C75.8653 23.0501 67.7397 23.1503 60.6025 23.5825C53.4653 24.0147 47.5554 24.9319 42.4522 26.0426C33.1454 28.0681 27.8837 30.2613 25.8103 31.2815C22.458 32.931 20.8607 35.1804 20.1286 37.0298C19.6117 38.3355 20.0668 39.8117 20.491 40.9497C21.4609 43.5517 27.9665 44.0653 32.6165 44.0293C34.1398 44.0175 35.2434 43.0135 36.0482 42.0294C38.0352 39.5996 36.8074 34.1678 34.81 28.1649C32.8415 22.2489 26.7075 18.3608 23.4446 16.2115C22.5754 15.639 21.2191 15.7348 19.6766 15.9147C16.6316 16.2697 15.5458 19.3088 14.4118 21.5739C13.6494 23.0966 13.23 29.3831 12.7191 37.8031C12.528 40.9542 12.701 41.8396 12.9908 42.6185C13.553 44.1293 15.1139 45.1179 17.1374 45.823C22.1925 47.5846 28.4591 46.216 33.2871 44.5732C36.9605 43.3232 38.7443 40.0914 39.843 37.4062C40.3702 36.1178 40.2658 34.7873 40.1901 33.6708C40.1519 33.1089 39.8772 32.585 39.4677 32.2746C38.6092 31.6242 37.3526 31.8544 36.4357 32.0429C35.9963 32.1332 35.6752 32.4498 35.4855 32.7824C33.5939 36.0998 36.9133 44.7908 39.4902 50.548C42.1212 56.4262 48.0299 59.8841 53.4812 62.3182C55.8245 63.3645 59.3867 63.3006 63.0322 63.1348C64.465 63.0696 64.9965 62.4726 65.3723 61.9246C67.0662 59.4539 66.6239 54.0039 64.8491 46.9808C63.8098 42.8681 59.5375 39.8266 55.4373 36.8596C51.2512 33.8305 46.0484 32.4686 39.0609 31.298C28.207 29.4795 20.8987 30.3243 19.8734 30.7817C18.6808 31.3137 18.2844 32.8501 18.0928 34.4436C17.8277 36.6485 18.3538 38.4925 18.965 39.5734C20.5725 42.4168 26.0425 43.63 35.7407 44.629C38.9782 44.9624 40.8673 44.1764 42.1474 43.5849C42.7245 43.3182 43.0735 42.9597 43.3052 42.3736C43.537 41.7875 43.6204 40.9439 43.4128 40.208C42.4814 36.9063 36.2913 35.4278 26.6164 34.5899C23.4257 34.3136 21.6725 35.2743 20.5157 35.9754C19.4982 36.592 18.9594 37.667 18.814 38.8066C18.7419 39.3718 19.1852 39.9183 19.7149 40.2876C24.7215 43.7783 35.7727 40.9368 38.382 40.0139C38.88 39.8378 39.1314 39.464 39.0224 39.2839C37.9631 37.5329 32.967 39.2069 28.5736 40.2749C27.4225 40.5547 26.2853 41.1228 25.8134 41.1079C23.0473 41.0206 30.0208 33.832 31.3132 30.7838C32.2868 28.4873 31.978 26.3953 30.9395 24.1333C29.5589 21.1263 27.6738 19.1377 27.846 17.9989C28.1808 15.785 31.5457 15.8601 34.9228 15.819C36.5203 15.7995 38.4121 20.4655 42.5438 28.496C44.9982 33.2666 49.0998 38.9467 51.7571 42.6638C55.5521 47.9724 58.3607 50.327 60.8782 52.1402C65.341 55.3545 70.3187 55.4884 77.0683 55.5538C80.9931 55.5919 84.4319 52.7345 86.3432 50.7791C86.6839 50.4305 86.6289 49.8939 86.2664 49.4725C83.8458 46.6589 76.2174 47.5558 72.2532 48.5258C69.1911 49.2751 68.5598 52.8496 68.3305 54.6655C68.2734 55.1176 68.533 55.6016 68.828 55.9187C69.4137 56.5483 74.3639 56.5701 81.5481 56.6021C88.825 56.6344 96.5872 53.3367 100.31 50.9727C103.327 49.057 105.051 45.8 106.161 43.97C108.253 40.5185 106.775 35.3061 105.757 32.7315C104.732 30.1387 102.067 28.1783 97.8468 25.8043C92.5023 22.7979 85.9048 21.4707 80.0591 20.6254C68.7638 18.9921 65.9392 21.116 64.5428 21.8027C63.8064 22.1649 67.865 21.5266 72.5082 20.811C80.2216 19.6222 85.4898 19.8161 86.2021 19.5038C86.5582 19.3476 86.7347 18.9026 86.451 18.6185C83.1047 15.2674 73.4062 16.9631 70.8495 15.936C70.5613 15.8202 70.9591 15.337 71.3407 15.1209C72.1644 14.6546 73.2273 14.6968 73.8944 14.4704C74.1786 14.3739 74.0014 13.7911 73.7738 13.4651C73.5463 13.1391 73.184 12.9538 73.2103 12.7875C73.9757 7.95334 87.755 12.6192 91.8612 14.5023C92.8741 14.9668 93.5855 15.576 95.9286 18.5724C98.2718 21.5687 102.182 27.0179 104.587 30.6413C109.642 38.2559 109.691 42.4016 109.646 46.9454C109.623 49.2603 104.519 51.6169 94.8742 55.528C92.5979 56.4511 90.8664 56.7739 92.3727 54.2911C93.8789 51.8082 98.6274 46.3813 101.451 43.0491C105.121 38.7188 106.288 36.364 107.085 34.127C107.767 32.2136 107.579 30.5497 107.115 29.1792C105.854 25.4561 99.3252 23.2636 91.3544 20.6847C81.6754 17.5532 74.1546 19.3431 73.6855 19.9729C72.5516 21.4952 76.7911 24.8726 83.1467 29.8712C92.2577 37.0367 97.1314 36.8978 99.4274 37.2606C99.8875 37.3334 100.301 37.3005 100.547 37.0909C100.793 36.8813 100.864 36.4579 100.671 36.0286C99.1745 32.6958 92.2642 32.3668 85.2638 32.1739C83.8544 32.1351 83.5674 32.657 83.7415 33.0177C85.7647 37.2082 94.8328 34.0206 95.0171 33.6556C95.5827 32.5358 91.4715 33.2687 77.7966 38.6326C65.3767 43.5042 42.3185 53.9421 31.1866 59.2556C20.0547 64.5691 21.6726 64.7492 31.5785 63.5783C41.4844 62.4074 59.6292 59.88 72.0189 57.7317C84.4087 55.5835 90.4935 53.8909 94.3294 52.7178C102.026 50.3638 104.263 48.2291 105.032 46.7021C106.229 44.3266 104.973 40.6041 103.948 38.4808C102.529 35.5423 96.6331 37.9668 92.0721 39.8743C89.8609 40.799 88.4325 42.4477 87.3683 43.6305C85.7062 45.4779 86.167 47.7421 86.409 48.5658C86.6808 49.4911 88.1351 49.7376 89.2824 49.9069C89.8049 49.984 90.2253 49.8536 90.6364 49.4333C93.8614 46.1362 94.9842 36.7258 95.3791 31.7512C95.5348 29.7895 93.2812 29.3734 92.7835 29.048C91.2017 28.0138 92.7832 33.9677 95.0816 38.2916C100.116 47.7624 104.766 53.7047 104.958 54.7696C105.403 57.2399 105.384 58.4419 105.792 58.8322C107.664 60.6236 109.41 52.1857 110.201 48.1044C110.602 46.0356 110.044 43.913 109.01 41.8145C107.793 39.3475 104.766 37.373 100.673 34.7595C98.1836 33.1699 94.6142 31.4416 90.6237 29.8C86.6332 28.1585 82.2678 26.7574 74.4339 25.6797C66.6 24.6021 55.4298 23.8904 49.383 23.5693C42.7567 23.2175 41.6353 23.6635 40.6598 24.1507C39.803 24.684 38.9489 25.5339 38.0751 26.9294C37.6486 27.7596 37.2562 28.8378 36.4771 31.0418" stroke="#E92323" stroke-width="5" stroke-linecap="round"/>
<path d="M43.3964 10.5135C43.2745 10.5135 35.795 10.1766 24.2798 9.76037C17.6995 9.52252 11.4244 16.0221 5.5783 22.3444C1.97282 26.2435 2.07254 36.4078 2.19118 42.4815C2.33305 49.7442 9.02349 59.0361 14.5222 65.5579C20.8684 73.0847 28.1438 75.2944 38.8877 77.8713C43.0182 78.862 48.7553 79.1051 56.0626 79.3476C63.3699 79.5902 72.1429 79.4719 79.3667 79.059C92.0278 78.3353 99.0436 76.8326 101.6 76.1049C107.585 74.4014 116.461 66.4611 119.906 62.1297C123.756 57.2878 123.116 51.411 122.506 41.9239C122.1 35.5974 118.24 30.2185 114.134 25.0562C108.94 18.5244 103.861 14.9155 100.313 12.985C94.4589 9.80058 88.2326 8.57288 79.6349 7.87286C73.1426 7.52769 62.3272 7.20295 54.908 7.36578C47.4887 7.52861 43.7932 8.18884 38.6259 9.31658" stroke="black" stroke-linecap="round"/>
<path d="M50.1265 10.9459C49.8783 10.4276 46.6202 6.13297 43.5225 3.02135C42.5077 2.00197 39.309 1.42571 35.4472 0.672914C33.9345 0.378023 33.3064 0.383281 34.956 1.30754C40.41 4.36331 47.3379 7.949 52.0559 10.3647C57.933 13.3738 65.6674 3.71225 68.7274 2.8114C68.4555 3.81556 64.3441 7.36175 58.4287 11.7541C56.2704 13.332 55.8246 13.588 55.3654 13.8519" stroke="black" stroke-linecap="round"/>
<path d="M53.4401 11.9076C52.5228 12.0984 46.8953 14.3756 42.6318 15.9771C41.523 16.3936 40.8345 17.1142 40.4691 17.9882C40.2766 18.4488 40.3187 19.0294 40.602 19.3927C42.6038 21.9593 49.4892 19.265 52.8983 17.9095C55.817 16.749 55.5256 13.4873 57.08 11.8711C60.1469 8.68208 66.5292 17.2311 69.219 18.8085C69.679 19.0783 69.9075 18.2161 69.6684 17.5769C68.6251 14.7877 66.04 14.311 63.4198 13.6726C59.8659 13.3571 57.1271 13.0325 56.2336 12.6666C55.7887 12.4549 55.361 12.1904 54.9203 11.9179" stroke="black" stroke-linecap="round"/>
<path d="M54.9199 11.9178C52.0015 11.8953 44.3174 11.4691 39.0437 11.2679C37.5607 11.2113 36.7304 11.841 36.4202 12.2032C35.9579 12.7428 44.5488 12.0672 55.5236 11.4668C64.4167 10.9802 70.3194 11.2791 72.5704 11.8535C73.1 11.9887 73.7151 12.0473 73.779 12.2459C74.4452 14.319 67.9375 13.442 63.936 12.4579C59.9254 12.1529 54.7184 12.279 53.6036 12.4593C53.0808 12.5512 52.6452 12.6441 52.0685 12.9905" stroke="black" stroke-linecap="round"/>
<path d="M96.5466 66.7056C95.9923 66.8505 94.3511 67.4061 89.6368 68.5203C85.5524 69.4856 77.9323 70.8095 73.801 71.694C69.2322 72.868 65.5384 74.6976 60.5069 77.2061C58.7186 78.1829 58.4836 78.5587 58.4141 79.4196" stroke="#E92323" stroke-width="5" stroke-linecap="round"/>
<path d="M59.5898 49.7081C59.5898 49.6802 59.5795 44.5763 59.5322 36.631C59.4322 33.3073 59.0959 32.2424 58.5509 31.2061C58.2771 30.7527 58.009 30.4462 56.8701 29.8545" stroke="#E92323" stroke-width="5" stroke-linecap="round"/>
</svg>
