<svg width="195" height="177" viewBox="0 0 195 177" fill="none" xmlns="http://www.w3.org/2000/svg">
<path d="M10.4353 0.500244C10.4353 0.644983 10.4353 0.789722 10.4594 20.8401C10.4835 40.8905 10.5316 80.8422 10.9193 103.781C11.307 126.721 12.0329 131.437 12.903 138.499C14.7656 154.828 16.0089 165.377 16.4297 167.637C16.6298 168.894 16.8025 170.375 17.532 174.625" stroke="black" stroke-linecap="round"/>
<path d="M17.532 174.625C17.5662 174.625 17.6004 174.625 46.633 174.87C75.6655 175.115 133.695 175.605 193.53 176.064" stroke="black" stroke-linecap="round"/>
<path d="M193.53 176.064C193.53 175.876 193.53 175.688 193.414 149.546C193.298 123.404 193.066 71.3127 192.812 43.4329C192.558 15.5531 192.288 13.4629 191.731 10.6591C191.175 7.85521 190.34 4.40098 189.272 0.500244" stroke="black" stroke-linecap="round"/>
<path d="M189.272 1.93929C189.185 1.93929 189.099 1.93929 160.548 1.93929C131.998 1.93929 74.9875 1.93929 44.8465 1.70185C14.7055 1.46441 13.1619 0.989521 10.5399 0.744882C7.9179 0.500244 4.26431 0.500244 0.5 0.500244" stroke="black" stroke-linecap="round"/>
</svg>
