<svg width="174" height="196" viewBox="0 0 174 196" fill="none" xmlns="http://www.w3.org/2000/svg">
<path opacity="0.8" d="M163.279 116.002C163.279 115.948 163.279 115.894 163.414 103.232C163.55 90.5687 163.821 65.2988 164.067 51.5676C164.436 30.9013 164.193 20.4566 162.323 16.6245C161.584 15.1097 158.574 14.8603 145.37 14.6271C134.003 14.4264 113.155 14.7096 100.592 15.0498C79.2933 15.6265 75.2477 18.4373 63.3231 18.3859C55.2922 18.3513 40.8976 16.4952 33.074 15.7662C22.384 14.77 13.7561 13.1946 8.50299 11.7366C7.85059 11.5555 7.72354 13.5557 7.70146 19.4373C7.67937 25.3189 7.88981 35.639 8.57885 49.8455C9.26789 64.052 10.4292 81.832 11.1278 91.4871C11.8264 101.142 12.0272 102.134 12.0621 111.606C12.097 121.079 11.9599 139.003 11.7918 150.085C11.5676 164.867 11.5541 169.434 12.4775 170.861C12.9636 171.612 13.9328 172.075 24.2182 172.231C34.5035 172.388 54.1901 172.136 64.7395 171.936C76.1076 171.721 77.8977 171.404 88.282 173.039C97.746 174.529 115.595 178.138 129.725 180.055C153.578 183.289 164.242 181.699 165.182 178.707C165.826 176.656 166.336 173.389 166.724 153.445C167.112 133.501 167.243 96.9443 167.126 71.5003C167.009 46.0564 166.641 32.8326 166.281 24.9349C165.921 17.0371 165.579 14.8661 165.227 13.4012C164.875 11.9363 164.522 11.2432 154.389 10.8287C144.257 10.4142 124.354 10.2993 112.067 10.4612C99.781 10.6231 95.7142 11.0652 86.3962 11.2688C77.0782 11.4725 62.6323 11.4242 54.0592 11.2767C43.2178 11.0903 40.0677 10.6392 37.0932 10.2151C31.3999 9.40326 23.0558 7.46706 14.6484 6.63923C11.1273 6.29254 9.09627 6.35777 8.05828 9.80007C5.0622 19.736 7.20886 28.5108 7.76596 39.95C8.25998 50.094 8.7642 69.0659 10.0365 87.1083C11.3089 105.151 13.2269 121.693 14.2198 134.046C16.5248 162.722 16.3226 166.755 18.0765 170.097C19.6739 173.142 26.4007 173.879 40.242 175.178C49.7994 176.074 64.6246 175.704 72.7783 175.567C82.0077 175.412 92.5026 174.938 108.318 175.433C123.646 175.913 130.869 176.263 141.548 172.12C146.205 170.313 149.352 168.328 151.732 164.296C152.384 163.192 152.491 161.834 153.196 141.519C153.902 121.203 155.004 81.8732 155.466 60.986C155.957 38.8498 154.935 36.0046 153.888 33.2946C153.436 32.1245 153.039 31.4129 150.751 30.4762C148.462 29.5396 144.267 28.4101 131.851 27.4224C119.436 26.4347 98.9267 25.6229 81.3605 24.1703C63.7944 22.7178 49.7925 20.6491 39.6802 19.5834C29.5678 18.5178 23.7692 18.5178 20.519 19.2041C17.2687 19.8904 16.7426 21.2631 16.4929 24.6359C16.2431 28.0088 16.2856 33.3402 17.126 42.1228C17.9665 50.9053 19.6036 62.9775 20.5281 79.6643C21.4526 96.3512 21.6148 117.287 21.7673 128.442C22.033 147.869 24.1167 162.998 25.298 165.225C25.8077 166.185 27.1183 166.091 45.1075 165.758C63.0968 165.425 97.9764 164.675 115.401 163.78C132.826 162.886 131.739 161.869 127.677 160.011C123.616 158.153 116.612 155.484 107.251 152.982C97.8895 150.481 86.382 148.228 77.1936 146.579C52.3825 142.128 46.206 142.528 44.2914 141.66C42.1157 140.673 37.7011 131.574 30.9215 112.063C26.936 100.593 25.5301 84.8181 24.2053 69.7648C22.8804 54.7115 22.6217 40.5717 23.1444 32.8801C23.667 25.1886 24.9789 24.3739 26.4632 23.764C29.4743 22.5267 37.0423 22.2632 46.1826 22.259C49.5127 22.2574 50.1787 22.7249 45.6635 27.4134C41.1482 32.1019 31.4295 41.117 25.6776 46.7037C19.9258 52.2904 18.4353 54.1757 18.0841 55.3351C17.7328 56.4945 18.5659 56.871 19.9536 56.6117C21.3413 56.3525 23.2584 55.446 30.8033 50.2698C38.3483 45.0936 51.463 35.6751 58.2248 31.4583C64.9867 27.2415 64.9983 28.5118 64.4878 30.1393C63.9773 31.7667 62.9445 33.7128 56.5355 43.7019C50.1266 53.691 38.373 71.6641 32.1342 81.3486C25.8955 91.0332 25.5277 91.8846 33.7007 84.218C41.8737 76.5514 58.5987 60.3409 67.1238 52.4891C75.649 44.6374 75.4675 45.6355 66.7456 59.3855C58.0237 73.1356 40.7668 99.6073 30.9884 115.058C21.2099 130.508 19.4328 134.135 18.3908 136.409C17.3489 138.684 17.0959 139.497 32.0583 122.277C47.0206 105.058 77.2059 69.7815 92.682 52.2281C108.158 34.6747 108.01 35.9132 96.6832 55.2024C85.3559 74.4917 62.8536 111.794 51.0327 131.304C38.8287 151.446 37.5241 152.661 35.5139 153.688C32.838 155.055 30.0112 154.333 28.6136 153.301C25.5418 151.035 27.6805 143.757 32.3192 130.904C35.8074 121.238 43.3058 105.85 48.5156 95.1681C56.4344 78.9314 60.9935 71.6417 63.1937 65.0647C64.7028 60.5539 66.118 53.387 66.5477 49.6228C66.9775 45.8587 66.1512 45.6444 64.8007 45.6976C61.5807 45.8245 50.5778 51.5275 36.2187 59.6586C29.7979 63.2944 28.2903 64.9344 27.9448 65.4618C27.8299 65.6372 28.8184 64.2507 35.9446 58.6506C43.0707 53.0504 56.5551 42.9272 64.0301 37.2628C74.892 29.0321 80.3365 27.4557 97.4682 27.2572C102.606 27.1977 106.399 28.5711 110.68 29.754C113.759 30.6046 101.41 36.0632 78.9044 45.3409C70.0386 48.9957 66.5895 51.0566 65.253 51.7355C63.9165 52.4143 64.8557 51.7878 72.981 48.0807C81.1062 44.3736 96.389 37.6048 103.43 35.4572C110.471 33.3097 108.807 35.9884 100.525 46.173C92.2435 56.3575 77.3951 73.9667 69.3772 83.5869C61.3592 93.2071 60.6217 94.3046 60.6559 94.7764C60.6901 95.2482 61.5184 95.0609 72.8979 86.7463C84.2775 78.4316 106.183 61.9953 117.654 52.9499C129.125 43.9044 129.498 42.748 129.754 39.2399C130.433 29.924 129.801 23.0478 128.495 21.5912C125.31 18.0404 118.064 21.3685 109.65 25.9317C107.827 26.9207 107.256 28.0559 106.865 29.0365C106.104 30.9405 106.636 32.9073 107.405 34.6138C109.453 39.154 116.13 42.3382 122.071 44.7488C124.632 45.7879 127.732 45.5656 130.624 45.3827C135.633 45.066 138.275 36.1093 141.805 31.7885C145.265 27.5533 149.908 26.2226 150.978 24.6796C151.497 23.9306 151.76 23.1163 151.359 50.819C150.958 78.5218 149.831 134.732 148.859 163.075C147.887 191.418 147.103 190.191 146.228 188.113C144.174 183.234 143.232 178.754 142.895 174.768C142.677 172.194 142.723 168.477 129.042 166.855C115.36 165.232 88.0412 165.811 73.4082 166.196C53.8805 166.711 46.3766 166.467 42.3607 165.134C41.3768 164.808 40.5288 164.211 40.6949 163.447C40.861 162.684 42.1081 161.668 51.9563 158.637C61.8045 155.607 80.2158 150.595 88.6831 148.066C95.2683 146.1 78.0363 149.132 53.5819 154.397C44.1397 156.43 40.6031 156.59 38.8853 156.122C37.1675 155.654 37.3451 154.406 38.15 152.943C38.9548 151.48 40.3816 149.84 54.8988 135.453C69.416 121.066 96.9804 93.9827 110.643 80.2149C124.305 66.4471 123.229 66.8158 112.877 75.1004C102.525 83.385 82.928 99.5742 72.7834 107.501C62.6389 115.428 62.5404 114.601 62.5143 112.723C62.4478 107.939 63.1056 103.846 64.1975 101.87C65.1222 100.197 66.6575 99.2721 67.3679 99.1647C67.7277 99.1103 66.9393 100.71 66.1647 101.565C61.467 106.75 52.1988 107.423 51.1331 108.427C50.0868 109.413 50.5452 111.668 49.9785 113.481C49.3932 115.353 45.3184 114.675 42.209 114.424C40.0571 114.249 47.1526 122.903 60.4568 138.152C65.7714 144.244 68.7009 146.517 70.0426 146.708C71.3842 146.899 71.1854 144.817 66.0822 134.728C60.9789 124.64 50.9773 106.609 45.2536 95.7886C38.0108 82.0964 37.0838 77.7511 37.4699 76.5303C37.6385 75.9976 39.1342 76.883 48.3732 86.4778C57.6123 96.0725 74.9029 114.667 84.6047 124.923C94.3064 135.178 95.8954 136.53 96.7549 136.689C97.6145 136.848 97.6965 135.773 97.3913 134.338C97.086 132.903 96.391 131.142 89.617 118.488C82.843 105.835 70.0112 82.343 63.0716 69.341C56.1321 56.3391 55.4738 54.5388 65.3539 64.8659C75.234 75.193 95.6725 97.7021 105.739 108.147C115.805 118.592 114.879 116.291 106.638 104.062C98.3962 91.8334 82.8672 69.7471 74.671 57.9745C66.4748 46.2019 66.0819 45.4122 67.2411 45.8414C68.4003 46.2706 71.1234 47.9425 82.1084 56.2217C93.0934 64.501 112.258 79.3368 121.823 86.2131C131.389 93.0893 130.775 91.5564 125.35 83.1871C119.925 74.8178 109.709 59.6586 104.22 51.398C98.7314 43.1374 98.2806 42.2349 99.1754 42.2646C100.07 42.2944 102.324 43.2838 109.528 48.2629C116.731 53.242 128.816 62.1808 134.856 66.2402C140.895 70.2996 140.524 69.2088 137.721 64.1384C129.878 49.949 123.475 38.7858 122.896 35.9758C121.478 29.0848 142.187 44.9296 150.23 48.8211C153.135 50.2264 153.215 51.2984 145.607 71.8022C137.999 92.3059 122.589 132.419 115.238 153.285C107.887 174.151 109.063 174.554 112.775 174.709C130.601 175.454 136.061 171.973 140.9 168.083C146.908 163.254 147.559 159.209 148.416 154.297C149.387 148.73 148.469 144.206 147.701 142.424C147.292 141.474 146.329 140.698 145.25 140.224C141.116 138.406 134.231 143.547 127.183 148.587C124.895 150.223 125.85 150.783 126.798 150.845C132.208 151.199 137.077 147.419 137.691 146.584C140.193 143.184 123.018 145.702 107.842 149.9C87.242 155.599 81.6629 163.601 81.1812 165.035C77.3679 176.389 111.249 157.375 116.265 154.331C117.625 153.506 115.549 152.856 106.615 152.21C97.6813 151.565 81.689 150.615 74.1238 149.515C66.5587 148.415 67.9053 147.194 81.0732 144.732C94.2411 142.27 119.19 138.603 131.338 136.52C143.486 134.436 142.077 134.046 128.085 133.882C114.093 133.718 87.5592 133.791 74.3697 133.667C61.1802 133.542 62.1388 133.218 73.7665 131.396C85.3942 129.574 107.662 126.264 118.537 124.33C129.411 122.396 128.218 121.938 118.17 121.419C108.121 120.9 89.2531 120.333 91.7743 119.681C94.2956 119.028 118.778 118.307 130.32 117.874C141.862 117.44 139.722 117.315 135.252 116.389C130.783 115.462 124.049 113.737 125.14 112.796C126.232 111.856 135.353 111.751 135.47 110.852C135.586 109.952 126.421 108.26 121.34 107.255C116.259 106.251 115.539 105.985 119.706 105.543C123.873 105.101 132.949 104.49 137.19 103.959C140.671 103.523 123.646 100.907 105.454 98.3057C95.4779 96.8794 127.323 96.2879 125.732 95.2377C122.213 92.9143 119.001 94.0241 117.467 94.8545C115.064 96.1557 114.852 100.057 114.371 101.611C114.142 102.349 115.538 97.8938 120.549 88.8246C124.543 81.5961 132.275 69.4873 137.144 60.7399C142.014 51.9924 143.99 47.0886 145.08 45.0885C146.169 43.0884 146.312 44.1406 146.284 65.3924C146.255 86.6442 146.052 128.064 146.482 150.11C146.911 172.156 147.981 173.575 149.073 174.542C151.026 176.273 154.384 176.492 157.493 176.081C162.862 175.37 156.342 149.59 152.548 140.797C149.573 133.902 139.976 143.033 136.865 145.774C134.427 147.922 137.891 152.59 141.72 158.229C142.548 159.449 143.168 159.962 143.49 159.844C148.601 157.976 139.24 145.594 133.414 137.335C131.342 134.399 130.538 128.679 129.342 121.279C128.578 116.558 124.615 111.066 114.029 98.4491C106.593 89.5846 94.0804 76.4816 87.3706 69.0578C78.5789 58.1075 76.6123 53.1852 75.206 44.9094C74.999 42.4115 74.9777 39.7241 75.3069 35.4575" stroke="#E92323" stroke-width="13" stroke-linecap="round"/>
</svg>
