<svg width="187" height="174" viewBox="0 0 187 174" fill="none" xmlns="http://www.w3.org/2000/svg">
<path opacity="0.8" d="M170.559 126.809C170.498 126.809 170.436 126.809 170.439 112.641C170.441 98.4734 170.51 70.1381 170.413 55.1034C170.31 39.1895 168.773 36.485 166.966 33.3821C164.824 29.7054 160.992 27.7198 155.551 25.6715C152.681 24.5908 147.476 23.3509 122.714 21.6481C97.9522 19.9453 53.7193 18.0281 31.7283 17.8433C9.73731 17.6585 11.3286 19.2643 12.7362 20.9448C13.759 22.1658 14.6287 23.3696 15.3735 24.5837M15.3735 24.5837C17.3001 27.7239 18.3913 30.933 19.1344 34.6865M15.3735 24.5837C16.6171 24.1526 20.6951 23.852 33.9872 23.9471C52.8181 24.082 89.0442 24.9838 112.445 26.5213C115.408 26.716 118.16 26.9199 120.719 27.1302M15.3735 24.5837C14.8553 24.7633 14.8293 24.9656 14.8338 25.1713C14.8545 26.1128 16.5081 29.4014 19.1344 34.6865M19.1344 34.6865C19.5558 36.8148 19.8653 39.1182 20.1518 41.6833C20.901 48.3908 20.9811 59.7164 20.5418 75.3036C20.1033 90.8587 18.8465 110.343 18.4204 122.793M19.1344 34.6865C20.6144 37.6649 22.4033 41.2773 24.3829 45.461C26.7563 50.477 27.6723 53.998 28.4935 66.0857C29.3147 78.1734 29.8557 98.7928 29.9343 110.303C29.9438 111.694 29.9411 113.001 29.9281 114.234M18.4204 122.793C18.4195 122.819 18.4186 122.845 18.4178 122.87C18.3648 124.427 18.3287 125.898 18.3072 127.289M18.4204 122.793C20.7173 120.903 24.1373 118.251 29.9281 114.234M18.4204 122.793C17.6114 123.459 16.9417 124.031 16.3568 124.534C13.1479 127.296 12.6659 127.863 12.6897 128.351C12.7048 128.659 12.9278 128.928 18.3072 127.289M18.3072 127.289C18.0915 141.274 19.3635 147.141 20.0048 149.986C20.4234 151.843 25.9616 152.505 46.5386 153.508M18.3072 127.289C19.5121 126.921 20.9756 126.458 22.7534 125.879M46.5386 153.508C46.7642 153.519 46.9916 153.53 47.2208 153.542M46.5386 153.508C46.5157 152.867 46.4873 152.086 46.4566 151.159M46.5386 153.508C46.5494 153.81 46.5589 154.08 46.5668 154.32M47.2208 153.542C47.7853 153.569 48.3609 153.596 48.9477 153.624C65.9319 154.431 94.1048 156.735 116.405 158.233C121.338 158.564 125.941 158.865 130.206 159.122M47.2208 153.542C47.2145 153.546 47.2081 153.551 47.2019 153.555C46.8946 153.78 46.6901 154.042 46.5668 154.32M47.2208 153.542C47.9396 153.028 49.3666 152.721 62.6453 152.678M130.206 159.122C139.853 159.703 147.768 160.062 153.854 160.05M130.206 159.122C127.074 158.792 122.638 158.333 115.965 157.681C102.303 156.348 79.852 154.278 62.6453 152.678M130.206 159.122C135.336 159.663 136.963 159.859 139.183 159.989C146.212 160.4 151.417 160.263 153.854 160.05M153.854 160.05C157.24 160.044 160.06 159.922 162.296 159.661C170.328 158.723 170.36 155.952 170.087 152.734C169.506 145.907 167.679 139.032 166.013 133.648C165.009 130.403 164.09 127.242 163.45 111.318C162.897 97.5573 162.792 72.2343 162.511 58.5329C162.132 40.0009 159.492 35.2431 158.518 34.1284C157.974 33.5056 157.164 32.9199 151.636 31.544C147.527 30.5211 140.8 29.093 128.005 27.7957M153.854 160.05C154.405 160.002 154.814 159.95 155.072 159.9C158.723 159.185 161.319 154.61 163.167 149.699C163.605 148.536 163.496 147.527 161.954 135.642C160.412 123.756 157.28 100.975 155.199 87.3563C153.117 73.7372 152.181 69.9701 151.64 64.0756C149.522 40.9839 149.662 37.0206 147.771 34.4628C146.728 33.0519 144.72 32.7314 132.566 32.9762M128.005 27.7957C125.768 27.5689 123.345 27.3461 120.719 27.1302M128.005 27.7957C129.392 29.0675 130.973 30.7169 132.566 32.9762M128.005 27.7957C127.209 27.0667 126.477 26.4618 125.842 25.9372L125.749 25.8607C124.688 24.9839 122.961 24.8899 121.343 25.1315C121.032 25.1779 120.801 25.3575 120.719 27.1302M120.719 27.1302C120.664 28.3191 120.676 30.2246 120.777 33.2871M29.9281 114.234C29.9118 115.787 29.8792 117.223 29.8339 118.559M29.9281 114.234C30.9887 113.499 32.1287 112.717 33.3559 111.886M29.8339 118.559C29.7711 120.414 29.684 122.078 29.5826 123.6M29.8339 118.559C30.7184 118.074 31.6997 117.549 32.7973 116.979M29.8339 118.559C27.4433 119.871 25.7609 120.895 24.4054 121.74C20.658 124.074 19.5983 124.923 19.9564 125.423C20.1176 125.648 20.5728 125.797 22.7534 125.879M29.5826 123.6C29.5277 124.425 29.4685 125.208 29.4068 125.957M29.5826 123.6C26.9036 124.51 24.6497 125.261 22.7534 125.879M29.5826 123.6C30.4007 123.323 31.2585 123.03 32.1579 122.722M29.4068 125.957C29.1065 129.602 28.7443 132.451 28.5021 135.406C28.0298 141.168 27.943 146.431 28.588 148.053C29.0882 149.311 31.0875 149.689 46.4566 151.159M29.4068 125.957C26.2386 125.957 24.1448 125.931 22.7534 125.879M29.4068 125.957C30.1454 125.958 30.9425 125.956 31.8027 125.954M46.4566 151.159C47.3843 151.248 48.3606 151.34 49.3884 151.438C53.1446 151.792 57.6763 152.216 62.6453 152.678M46.4566 151.159C46.4418 150.712 46.4264 150.232 46.411 149.717M62.6453 152.678C63.6516 152.675 64.7259 152.673 65.8731 152.673C82.2936 152.67 113.606 152.993 129.815 152.562C140.494 152.278 144.205 151.662 145.437 147.569M132.566 32.9762C130.464 33.0186 128.059 33.0778 125.304 33.1513C123.895 33.1888 122.381 33.2344 120.777 33.2871M132.566 32.9762C135.091 36.5575 137.648 41.6713 139.519 49.2429C140.272 52.2886 141.05 55.9657 141.784 60.7681M120.777 33.2871C105.527 33.788 82.2023 34.9263 64.738 35.8106M120.777 33.2871C120.848 35.4221 120.962 38.1193 121.126 41.5282M64.738 35.8106C60.9625 36.0018 57.4609 36.1811 54.374 36.3396C47.0515 36.7154 41.8505 37.0314 38.1124 37.2652M64.738 35.8106C68.4541 38.3399 72.1965 41.5797 75.349 46.4219M64.738 35.8106C63.5627 35.0107 62.39 34.2819 61.2395 33.5959C53.4443 28.9484 39.9929 32.3698 36.8875 33.3023C36.0792 33.5451 35.4855 34.1058 35.0212 34.8819M38.1124 37.2652C36.4781 37.3674 35.1234 37.4539 33.9934 37.5228M38.1124 37.2652C37.0355 36.4485 35.9951 35.6476 35.0212 34.8819M38.1124 37.2652C42.1964 40.3622 46.8066 43.6872 50.3139 46.1885C51.1427 46.7795 51.7241 47.5653 52.14 48.8167M33.9934 37.5228C30.2226 37.7528 28.953 37.7871 28.1401 37.5561C26.6578 37.1348 27.3558 32.8947 27.665 29.5798C27.7594 28.5684 28.5032 29.0678 29.0611 29.7016C30.0909 30.8715 32.2959 32.7391 35.0212 34.8819M33.9934 37.5228C34.2698 36.5112 34.5896 35.6035 35.0212 34.8819M33.9934 37.5228C33.1537 40.5954 32.7138 44.626 30.7547 47.3066C30.0249 48.3053 29.6488 49.0135 29.6292 49.6554C29.6095 50.2973 29.9798 50.8673 46.3331 49.3691C48.0962 49.2076 50.0449 49.0218 52.14 48.8167M52.14 48.8167C52.78 50.7421 53.0281 53.7697 53.1826 58.8858M52.14 48.8167C58.8134 48.1632 66.9722 47.3128 75.349 46.4219M53.1826 58.8858C53.2101 59.7949 53.2346 60.7699 53.2578 61.8164M53.1826 58.8858C51.9624 58.8735 50.8163 58.8618 49.759 58.8512C38.2638 58.7357 37.286 58.746 36.7452 64.2248C36.5363 66.3411 36.3931 69.2253 36.2375 72.7385M53.1826 58.8858C56.2167 58.9165 59.7093 58.9512 63.4361 58.9835M53.2578 61.8164C53.2827 62.9376 53.3061 64.1407 53.3301 65.4327M53.2578 61.8164C56.1798 60.9629 59.6431 60.0036 63.4361 58.9835M53.2578 61.8164C50.7213 62.5574 48.5927 63.2186 47.0106 63.7707C39.7018 66.3211 44.5588 66.4196 53.3301 65.4327M53.3301 65.4327C53.3375 65.835 53.3451 66.2459 53.3527 66.6657C53.3675 67.4804 53.3613 68.2226 53.3309 68.9457M53.3301 65.4327C57.2923 64.9869 62.0533 64.3196 66.8524 63.5568C72.207 62.7057 77.5542 61.7411 82.5633 60.7723M53.3309 68.9457C53.2521 70.8189 53.0109 72.564 52.552 75.1112M53.3309 68.9457C61.9129 67.169 72.5913 65.0187 83.2583 62.9027M53.3309 68.9457C51.8681 69.2486 50.4662 69.5406 49.1356 69.8197C43.3164 71.0403 38.9565 71.996 36.2375 72.7385M52.552 75.1112C52.3808 76.0615 52.1793 77.1235 51.9447 78.3454C51.6927 79.6576 51.3955 81.1507 51.0727 82.8019M52.552 75.1112C50.1625 75.1195 47.9574 75.1195 45.987 75.1085C41.5447 75.0839 38.2905 75.0054 36.145 74.8503M52.552 75.1112C56.1595 75.0986 60.1871 75.0672 64.4614 75.0262M51.0727 82.8019C50.825 84.0689 50.5623 85.4291 50.2934 86.8719M51.0727 82.8019C55.3119 80.2511 59.887 77.5734 64.4614 75.0262M51.0727 82.8019C44.5753 86.7115 38.8673 90.323 35.1615 92.7097M50.2934 86.8719C49.4587 91.3501 48.5646 96.6251 47.8771 102.387M50.2934 86.8719C44.8229 89.4085 40.1327 91.6475 36.7359 93.2586C36.1369 93.5427 35.5783 93.8072 35.0606 94.0515M50.2934 86.8719C57.3527 83.5986 65.7113 79.8295 74.2665 76.2741C75.3925 75.8061 76.5196 75.343 77.6442 74.8856M47.8771 102.387C47.8073 102.972 47.7397 103.561 47.6745 104.155C47.4593 106.116 47.2722 108.119 47.1103 110.138M47.8771 102.387C59.4272 95.0217 74.0429 86.0076 86.4683 78.463M47.8771 102.387C46.0489 103.553 44.2976 104.677 42.6439 105.748C39.0862 108.052 36.0162 110.085 33.3559 111.886M47.1103 110.138C46.9093 112.647 46.7471 115.182 46.6184 117.696M47.1103 110.138C48.3985 109.56 49.7589 108.955 51.1966 108.324C61.5723 103.769 75.6671 97.9397 89.2523 92.6352M47.1103 110.138C40.8063 112.971 36.2325 115.195 32.7973 116.979M46.6184 117.696C46.4767 120.463 46.3753 123.204 46.307 125.856M46.6184 117.696C41.8995 119.352 37.5941 120.853 33.9231 122.116C33.3176 122.324 32.7293 122.526 32.1579 122.722M46.6184 117.696C59.9181 113.029 76.502 107.128 91.4226 101.821M46.307 125.856C46.212 129.539 46.1806 133.052 46.1928 136.224C46.1996 137.975 46.2132 139.598 46.2315 141.096M46.307 125.856C44.446 125.872 42.6908 125.887 41.062 125.899C37.3601 125.928 34.3127 125.947 31.8027 125.954M46.307 125.856C51.2678 125.812 56.9807 125.758 63.0576 125.702M46.2315 141.096C46.2502 142.629 46.2738 144.032 46.2999 145.31M46.2315 141.096C47.2885 140.458 48.4381 139.773 49.681 139.038C52.3504 137.459 55.4258 135.661 58.7858 133.709M46.2315 141.096C42.7129 143.219 40.2192 144.82 38.7178 146.028M46.2999 145.31C46.3343 146.993 46.3731 148.458 46.411 149.717M46.2999 145.31C49.3253 144.966 52.9774 144.505 57.394 143.898C70.0925 142.152 89.5141 139.358 106.87 136.799M46.2999 145.31C43.1423 145.668 40.6673 145.897 38.7178 146.028M46.411 149.717C37.5874 149.645 34.8366 149.151 38.7178 146.028M46.411 149.717C47.7024 149.727 49.1239 149.729 50.6738 149.728C67.1172 149.722 97.9753 149.471 118.392 148.956M46.5668 154.32C46.6121 155.69 46.6063 156.077 46.4859 155.606C46.3796 155.189 46.3824 154.737 46.5668 154.32ZM145.437 147.569C146.074 145.45 146.048 142.398 145.979 137.978C145.947 135.874 145.905 133.461 145.853 130.819M145.437 147.569C141.656 147.994 135.724 148.407 125.729 148.743M145.437 147.569C148.182 147.261 149.792 146.947 150.999 146.652C154.06 145.906 154.355 145.314 154.111 142.98C153.902 140.978 153.29 137.71 152.209 129.599M145.853 130.819C145.825 129.436 145.795 127.991 145.761 126.495M145.853 130.819C149.271 130.238 151.173 129.863 152.209 129.599M145.853 130.819C144.14 131.11 142.046 131.453 139.49 131.859M145.761 126.495C145.465 113.248 144.931 96.0115 144.057 82.8523C143.432 73.4532 142.638 66.3504 141.784 60.7681M145.761 126.495C145.752 126.493 145.743 126.492 145.735 126.491C144.35 126.281 142.703 126.06 139.644 125.87M145.761 126.495C148.781 126.954 150.798 127.497 152.002 128.034M141.784 60.7681C143.102 65.334 144.657 72.1816 146.16 82.1105C148.106 94.9594 150.184 113.683 151.63 125.135C151.759 126.159 151.883 127.124 152.002 128.034M141.784 60.7681C140.529 56.4188 139.489 54.1398 138.914 53.2399C138.439 52.4969 137.711 52.4219 121.853 55.4046M121.126 41.5282C121.164 42.3235 121.205 43.1576 121.249 44.0323M121.126 41.5282C118.784 41.7623 115.802 42.0727 112.006 42.477C102.68 43.4705 88.7361 44.998 75.349 46.4219M121.126 41.5282C129.271 40.7138 129.677 40.8218 129.643 41.1115C129.61 41.3924 129.152 41.8428 121.249 44.0323M121.249 44.0323C121.274 44.5243 121.299 45.0292 121.326 45.5473C121.474 48.4543 121.653 51.7804 121.853 55.4046M121.249 44.0323C118.654 44.7514 115.255 45.6581 110.805 46.808C102.726 48.8953 91.1871 51.7798 79.9614 54.6602M121.853 55.4046C121.902 56.2864 121.952 57.1859 122.003 58.1013M121.853 55.4046C121.316 55.5058 120.761 55.6104 120.187 55.7187C115.607 56.5841 109.87 57.6868 103.551 58.9157M122.003 58.1013C122.291 63.2543 122.616 68.9112 122.954 74.7613M122.003 58.1013C117.764 58.3113 111.973 58.6966 103.551 58.9157M122.003 58.1013C124.805 57.9625 126.928 57.9003 128.684 58.013C131.029 58.1635 131.754 64.0523 132.896 75.9655M122.954 74.7613C123.059 76.5865 123.166 78.4305 123.274 80.2838M122.954 74.7613C115.698 74.5757 104.555 74.62 92.6379 74.7288M122.954 74.7613C123.423 74.7733 123.876 74.7863 124.312 74.8003C129.951 74.9811 132.583 75.3336 132.896 75.9655M123.274 80.2838C123.468 83.6236 123.664 86.9937 123.858 90.339M123.274 80.2838C129.045 78.3377 132.691 77.0377 132.916 76.1813M123.274 80.2838C120.314 81.282 116.794 82.4502 112.891 83.8157C105.875 86.2697 97.6613 89.3519 89.2523 92.6352M123.858 90.339C123.968 92.2253 124.077 94.1038 124.185 95.9644M123.858 90.339C121.798 91.0578 119.461 91.8781 116.811 92.8129C109.91 95.2467 101.009 98.4112 91.4226 101.821M123.858 90.339C128.57 88.6956 131.836 87.5829 134.102 86.8455M124.185 95.9644C124.498 101.357 124.8 106.599 125.074 111.451M124.185 95.9644C128.991 93.1109 132.283 91.082 134.532 89.626M124.185 95.9644C123.11 96.6025 121.96 97.2818 120.729 98.0052C117.853 99.6946 114.536 101.623 110.921 103.714M125.074 111.451C125.167 113.092 125.256 114.688 125.342 116.229M125.074 111.451C122.643 108.816 117.798 104.797 110.921 103.714M125.074 111.451C125.501 111.914 125.853 112.334 126.129 112.688C126.687 113.403 126.462 114.564 126.047 115.366C125.876 115.695 125.63 115.982 125.342 116.229M125.342 116.229C125.498 119.043 125.642 121.677 125.768 124.075C125.793 124.542 125.817 125.001 125.84 125.452M125.342 116.229C124.926 116.586 124.422 116.859 123.934 117.051C122.394 117.656 119.868 117.717 116.991 117.505M125.84 125.452C126.003 128.682 126.119 131.483 126.194 133.915M125.84 125.452C123.246 125.419 120.291 125.397 116.913 125.387C111.877 125.373 105.964 125.387 99.6226 125.418M125.84 125.452C132.438 125.536 136.696 125.688 139.644 125.87M126.194 133.915C126.202 134.17 126.209 134.422 126.216 134.669M126.194 133.915C128.79 133.522 131.202 133.153 133.376 132.817C135.662 132.463 137.691 132.146 139.49 131.859M126.194 133.915C124.531 134.167 122.792 134.429 120.992 134.699M126.216 134.669C126.455 143.098 126.183 146.877 125.729 148.743M126.216 134.669C127.351 134.661 128.409 134.652 129.374 134.642C137.713 134.556 139.109 134.373 139.49 131.859M126.216 134.669C124.613 134.68 122.856 134.69 120.992 134.699M125.729 148.743C125.485 149.744 125.189 150.194 124.891 150.515C124.398 151.047 123.555 151 122.598 150.798C121.204 150.502 119.796 149.86 118.392 148.956M125.729 148.743C124.567 148.782 123.349 148.82 122.074 148.856C120.891 148.89 119.662 148.924 118.392 148.956M118.392 148.956C114.38 146.372 110.4 141.654 106.87 136.799M106.87 136.799C106.387 136.134 105.912 135.467 105.447 134.803M106.87 136.799C111.812 136.07 116.587 135.36 120.992 134.699M105.447 134.803C104.193 133.012 103.009 131.239 101.914 129.585C101.152 128.434 100.392 127.036 99.6226 125.418M105.447 134.803C110.826 134.749 116.256 134.724 120.992 134.699M105.447 134.803C100.114 134.856 94.8305 134.936 90.3236 135.071C72.2214 135.612 64.0361 136.907 60.6836 136.358C59.3211 136.135 58.9412 134.934 58.8106 134.006C58.7971 133.91 58.7889 133.811 58.7858 133.709M99.6226 125.418C98.3176 122.674 96.9859 119.295 95.5736 115.409C95.2927 114.636 95.014 113.843 94.7376 113.029M99.6226 125.418C91.0925 125.46 81.7889 125.534 72.8085 125.613M94.7376 113.029C93.8532 110.424 92.9924 107.607 92.1574 104.573M94.7376 113.029C100.449 109.751 105.966 106.58 110.921 103.714M94.7376 113.029C87.4926 117.186 79.9336 121.516 72.8085 125.613M92.1574 104.573C91.9102 103.675 91.6653 102.758 91.4226 101.821M92.1574 104.573C85.5059 105.664 80.2842 107.75 76.1311 111.821C71.3444 116.513 66.4283 121.486 63.0576 125.702M92.1574 104.573C96.4105 103.876 101.248 103.586 106.765 103.445C108.222 103.408 109.609 103.508 110.921 103.714M91.4226 101.821C90.6944 99.01 89.9869 96.0258 89.3018 92.864C89.2853 92.7878 89.2688 92.7116 89.2523 92.6352M89.2523 92.6352C88.2477 87.9785 87.3092 83.0123 86.4683 78.463M86.4683 78.463C86.2355 77.2038 86.0102 75.9765 85.793 74.7965M86.4683 78.463C88.598 77.1699 90.6634 75.9199 92.6379 74.7288M85.793 74.7965C85.6056 73.7785 85.4243 72.7956 85.2494 71.8579M85.793 74.7965C83.0741 74.8252 80.3461 74.8555 77.6442 74.8856M85.793 74.7965C88.0883 74.7724 90.377 74.7494 92.6379 74.7288M85.2494 71.8579C84.9711 70.3653 84.7092 68.987 84.4654 67.7629C84.2813 66.8383 84.0802 65.9492 83.8633 65.0905M85.2494 71.8579C82.754 72.8314 80.2054 73.8438 77.6442 74.8856M85.2494 71.8579C96.4339 67.495 106.552 63.9142 111.964 61.9722C119.113 59.4066 117.584 59.8656 102.784 68.6512C99.8578 70.3886 96.4139 72.451 92.6379 74.7288M83.8633 65.0905C83.6735 64.339 83.4716 63.6108 83.2583 62.9027M83.8633 65.0905C87.1586 63.5444 90.2213 62.1742 92.9639 60.9862M83.8633 65.0905C79.4122 67.1788 74.5368 69.5879 69.4529 72.302C67.8001 73.1843 66.1308 74.0966 64.4614 75.0262M83.2583 62.9027C83.0384 62.1724 82.8064 61.4635 82.5633 60.7723M83.2583 62.9027C86.5146 62.2568 89.7697 61.6141 92.9639 60.9862M82.5633 60.7723C82.3624 60.2012 82.1539 59.6423 81.9382 59.0935M82.5633 60.7723C85.4967 60.2049 88.3142 59.636 90.9492 59.0877M81.9382 59.0935C81.3321 57.5511 80.6696 56.0884 79.9614 54.6602M81.9382 59.0935C75.7745 59.0795 69.3139 59.0345 63.4361 58.9835M81.9382 59.0935C85.0557 59.1006 88.0973 59.0997 90.9492 59.0877M79.9614 54.6602C78.8728 52.4647 77.6761 50.3508 76.4107 48.1546C76.0652 47.555 75.711 46.9779 75.349 46.4219M79.9614 54.6602C74.2004 56.1385 68.5219 57.6157 63.4361 58.9835M90.9492 59.0877C96.7745 57.8754 101.708 56.7634 105.032 55.9888C105.175 55.9555 105.314 55.923 105.45 55.8911M90.9492 59.0877C93.0772 59.0787 95.0996 59.0635 96.9691 59.0407C97.1697 59.0383 97.369 59.0357 97.5672 59.0331M105.45 55.8911C112.387 54.2674 111.367 54.318 110.219 54.4761C109.363 54.5939 108.453 54.7706 105.45 55.8911ZM105.45 55.8911C104.347 56.303 102.96 56.8425 101.189 57.5535C100.116 57.9843 98.9035 58.4779 97.5672 59.0331M97.5672 59.0331C96.1626 59.6166 94.6217 60.2681 92.9639 60.9862M97.5672 59.0331C99.6983 59.0045 101.689 58.9642 103.551 58.9157M92.9639 60.9862C96.6017 60.2711 100.16 59.5752 103.551 58.9157M64.4614 75.0262C68.6717 74.9857 73.1213 74.9359 77.6442 74.8856M35.1615 92.7097C35.0739 92.7661 34.9874 92.8218 34.9021 92.8768C28.5231 96.9904 28.8541 96.9793 35.0606 94.0515M35.1615 92.7097C35.1376 93.0352 35.1132 93.3624 35.0882 93.6912C35.079 93.8111 35.0699 93.9312 35.0606 94.0515M35.1615 92.7097C35.6611 85.9078 35.9275 79.8454 36.145 74.8503M35.0606 94.0515C34.6143 99.8406 33.9879 106.034 33.3559 111.886M33.3559 111.886C33.1687 113.62 32.981 115.324 32.7973 116.979M32.1579 122.722C32.0336 123.842 31.9146 124.922 31.8027 125.954M32.1579 122.722C32.3598 120.902 32.5756 118.976 32.7973 116.979M134.102 86.8455C138.867 85.2953 139.217 85.4035 139.294 85.7247C139.376 86.0635 139.146 86.6399 134.532 89.626M134.102 86.8455C133.8 84.7885 133.546 82.8037 133.368 80.9372C133.208 79.2582 133.059 77.673 132.916 76.1813M134.102 86.8455C134.237 87.7595 134.381 88.6876 134.532 89.626M134.532 89.626C135.731 97.0599 137.387 105.134 138.322 111.839C139.14 117.713 139.529 122.376 139.644 125.87M72.8085 125.613C67.8386 128.471 63.0798 131.215 58.7858 133.709M72.8085 125.613C69.4958 125.642 66.2272 125.672 63.0576 125.702M58.7858 133.709C58.7291 131.835 60.4204 129 63.0576 125.702M38.7178 146.028C33.1483 146.402 31.8682 145.972 31.218 145.45C29.8954 144.387 30.2905 141.407 31.2532 131.279C31.4018 129.716 31.5892 127.923 31.8027 125.954M152.209 129.599C152.142 129.096 152.073 128.574 152.002 128.034M152.209 129.599C153.315 129.317 153.434 129.161 153.357 129.016C153.194 128.705 152.758 128.37 152.002 128.034M36.2375 72.7385C32.0074 73.8936 31.7487 74.5326 36.145 74.8503M36.2375 72.7385C36.2073 73.4192 36.1767 74.1234 36.145 74.8503M132.896 75.9655C132.93 76.0341 132.936 76.106 132.916 76.1813M132.896 75.9655C132.903 76.0372 132.91 76.1091 132.916 76.1813M139.644 125.87C139.714 128.002 139.683 129.699 139.585 130.972C139.56 131.296 139.531 131.591 139.49 131.859M116.991 117.505C111.253 117.083 104.12 115.58 100.632 115.163C104.835 115.039 109.031 115.07 111.61 115.668C113.02 116.082 114.945 116.765 116.991 117.505ZM116.991 117.505C117.353 117.636 117.718 117.768 118.085 117.901M7.58236 6C7.7641 6 7.94584 6 12.9836 6.77389C17.1242 7.40996 24.5415 8.56883 35.082 9.42972M35.082 9.42972C37.3657 9.61624 39.7962 9.78878 42.3716 9.93898C56.8337 10.7824 75.5701 10.8745 92.7469 12.0577C109.924 13.2408 124.973 15.5121 137.272 16.8486C149.57 18.1851 158.661 18.5178 163.4 19.0143C168.138 19.5109 168.248 20.161 168.77 33.6402C169.292 47.1193 170.222 73.4077 170.625 87.4071C170.925 97.8238 170.819 101.883 171.141 105.458M35.082 9.42972C30.2579 9.39304 25.6331 9.32531 22.1113 9.21599C13.4113 8.94591 11.5 8.43738 10.3079 8.45519C9.11582 8.47301 8.49934 8.99126 8.52615 9.82127C8.5875 11.7207 9.3162 14.1735 9.91068 16.8466C10.4538 19.2887 10.872 30.2652 9.27195 48.7664C8.48938 57.8149 7.26925 66.169 6.59984 71.5161C5.93043 76.8632 5.81524 79.1346 6.28423 88.2072C6.75321 97.2798 7.7754 112.687 8.58978 122.437C9.40416 132.188 10.1522 136.155 10.2908 141.37C10.5955 152.835 10.1639 160.341 10.2199 161.815C10.229 162.054 10.4337 161.329 16.0498 160.979C21.6659 160.629 32.369 160.653 45.8662 161.763C59.3635 162.872 75.1758 165.003 98.1659 166.267C121.156 167.531 150.437 167.916 165.279 167.772C180.122 167.628 180.637 166.98 180.711 164.473C180.907 157.754 180.642 146.898 177.517 132.71C175.763 124.744 172.896 115.482 171.862 110.285C171.497 108.452 171.279 107 171.141 105.458M35.082 9.42972C42.1748 9.48364 49.6985 9.47042 54.7802 9.42359C63.3182 9.34492 64.4957 9.17085 80.5041 9.30218C96.5126 9.4335 127.316 9.87548 143.564 10.2896C164.02 10.811 169.667 17.3834 170.667 18.546L170.688 18.5712C171.135 19.18 171.525 19.9027 171.59 37.7626C171.641 52.0677 171.476 77.3528 171.141 105.458M171.141 105.458C171.057 112.443 170.963 119.601 170.859 126.809" stroke="#E92323" stroke-width="12" stroke-linecap="round"/>
</svg>
